<svg width="10" height="10" viewBox="0 0 10 10" fill="none" xmlns="http://www.w3.org/2000/svg">
<path fill-rule="evenodd" clip-rule="evenodd" d="M5.5 0L6 1.12602C6.18246 1.17298 6.35987 1.23249 6.53128 1.30357C6.69902 1.37298 6.86299 1.4543 7.02191 1.54751L7.03221 1.55357L8.18198 1.11091L8.88909 1.81802L8.44643 2.96779C8.54227 3.13007 8.62567 3.29767 8.69663 3.4692C8.76612 3.63683 8.82454 3.81021 8.87099 3.98843L8.87398 4L10 4.5V5.5L8.87398 6C8.82706 6.18232 8.7676 6.35961 8.69658 6.5309C8.62564 6.7024 8.54225 6.86996 8.44643 7.03221L8.88909 8.18198L8.18198 8.88909L7.03221 8.44643C6.87006 8.5422 6.70259 8.62554 6.5312 8.69646C6.35982 8.76753 6.18243 8.82703 6 8.87398L5.5 10H4.5L4 8.87398C3.81754 8.82702 3.64012 8.76751 3.46871 8.69642C3.30097 8.62701 3.137 8.5457 2.97809 8.45249L2.96779 8.44643L1.81802 8.88909L1.11091 8.18198L1.55357 7.03221C1.45781 6.87007 1.37448 6.70263 1.30356 6.53125C1.23399 6.36348 1.1755 6.18995 1.12901 6.01157L1.12602 6L0 5.5V4.5L1.12602 4C1.17294 3.81768 1.2324 3.64038 1.30342 3.46909C1.37436 3.2976 1.45775 3.13004 1.55357 2.96779L1.11091 1.81802L1.81802 1.11091L2.96779 1.55357C3.13001 1.45776 3.29754 1.37439 3.46901 1.30346C3.64032 1.23242 3.81765 1.17295 4 1.12602L4.5 0H5.5ZM4.99808 5.50012C4.16965 5.50012 3.49808 5.50012 3.49808 7.00012C3.49808 7.42246 3.75798 7.54413 4.07903 7.69442C4.38774 7.83894 4.75298 8.00993 4.99808 8.50012C5.24318 8.00993 5.60842 7.83894 5.91713 7.69442C6.23818 7.54413 6.49808 7.42246 6.49808 7.00012C6.49808 5.50012 5.82651 5.50012 4.99808 5.50012ZM2.99976 6.50012C1.99976 6.50012 1.99976 6.00012 1.99976 5.50012C1.99976 5.00012 2.00049 4.00012 2.49976 3.50012C2.76341 4.02666 2.88824 4.27595 2.94723 4.53996C3.00029 4.77736 3.0001 5.02665 2.99976 5.50012V6.50012ZM3.50024 3.5C3.50024 4 3.50024 4.5 4.50024 4.5V3.5C4.50059 3.02653 4.50077 2.77724 4.44772 2.53984C4.38873 2.27583 4.2639 2.02653 4.00024 1.5C3.50098 2 3.50024 3 3.50024 3.5ZM5.49808 4.49992C6.49808 4.49992 6.49808 3.99992 6.49808 3.49992C6.49808 2.99992 6.49735 1.99992 5.99808 1.49992C5.73443 2.02645 5.6096 2.27575 5.5506 2.53976C5.49755 2.77716 5.49773 3.02645 5.49808 3.49992V4.49992ZM8.00024 5.50012C8.00024 6.00012 8.00024 6.50012 7.00024 6.50012V5.50012C6.9999 5.02665 6.99971 4.77736 7.05277 4.53996C7.11176 4.27595 7.23659 4.02666 7.50024 3.50012C7.99951 4.00012 8.00024 5.00012 8.00024 5.50012Z" fill="currentColor"/>
</svg>
