<svg width="10" height="10" viewBox="0 0 10 10" fill="none" xmlns="http://www.w3.org/2000/svg">
<path d="M6.50189 0H8.49803V2.94879L6.50189 1.75113V0Z" fill="currentColor"/>
<path d="M1.4001 5.3C1.4001 5 0.150652 4.5 0.150652 6.3C0.65065 5.8 1.15065 5.8 1.4001 6.3V5.3Z" fill="currentColor"/>
<path fill-rule="evenodd" clip-rule="evenodd" d="M5.50014 7.00001V10H1.50065C0.772222 10 0 9.32843 0 8.50001C0 7.67158 0.67157 7.00001 1.39999 7.00001V7.75001C1.08578 7.75001 0.749997 8.10444 0.749997 8.50001C0.749997 8.89558 1.18584 9.25 1.50005 9.25L1.50016 3.99983L0.000164501 3.99985L1.66087 3.00338C1.66087 1.99982 1.66087 1.53298 2.25015 0.99985C2.25015 1.39982 2.25015 1.84026 2.60015 1.99982C2.60015 1.32287 2.85494 0.99985 3.45866 0.562564C3.50015 1.09982 3.50015 1.49982 4.01296 1.59206L4.99992 0.99985L10 3.99985L8.49803 4.00001L8.49798 6.75016C8.99412 6.75016 9.34814 6.75016 9.49802 6.25016C9.49802 6.2788 9.498 7.042 8.99412 7.68491C9.09568 7.80078 9.24412 7.8 9.48631 7.68491C9.30271 8.4 8.99412 8.5 8.49803 8.5V10H7.50013V7.00001H5.50014ZM2.50003 8.49984V5.99985H4.50003V8.49984H2.50003Z" fill="currentColor"/>
</svg>
