<svg width="10" height="10" viewBox="0 0 10 10" fill="none" xmlns="http://www.w3.org/2000/svg">
<path d="M3.32107 1.64807H6.67913C7.60931 1.64807 8.51492 2.11835 8.73128 2.76743L9.79733 5.96558C10.2096 7.20247 9.34879 8.3642 7.79848 8.3642H2.20171C0.651406 8.3642 -0.209432 7.20247 0.202865 5.96558L1.26892 2.76743C1.48527 2.11835 2.39088 1.64807 3.32107 1.64807Z" fill="#171322"/>
<path fill-rule="evenodd" clip-rule="evenodd" d="M1.29412 3.229H8.70588L9.5 5.87606H0.5L1.29412 3.229ZM0.809603 5.71705L1.48106 3.33897H8.51894L9.1904 5.71705H0.809603Z" fill="white"/>
<path d="M4.06183 4.16721H4.29638L4.303 4.04222H4.07066L4.06183 4.16721Z" fill="white"/>
<path fill-rule="evenodd" clip-rule="evenodd" d="M1.67137 3.45093H8.32864L8.88729 5.56139H1.11271L1.67137 3.45093ZM3.61893 3.91956L3.63168 3.79915H3.85973L3.87016 3.68096H4.09613L4.10432 3.5649H5.67177L5.67791 3.68096H5.90388L5.91222 3.79915H5.68417L5.67791 3.68096H4.09613L4.08779 3.79915H5.45611L5.46036 3.91956H5.92072L5.92938 4.04222H6.16172L6.17275 4.16722H6.4073L6.42079 4.29461H6.65759L6.74102 4.97004H6.49231L6.50748 5.11337H6.25624L6.26914 5.25964H6.01531L6.02585 5.40895H5.25647L5.25382 5.25964H5.00001V4.82957H5.49248L5.47818 4.42446H5.2391L5.24143 4.55686H5.00001V4.42446H4.76092L4.76322 4.29461H4.52642L4.51716 4.55686H4.27574L4.28275 4.42446H4.04366L4.05282 4.29461H3.57923L3.59272 4.16722H3.35817L3.38876 3.91956H3.61893ZM2.22217 5.18613L2.17892 5.40895H4.74354L4.74748 5.18613H2.22217ZM6.89398 5.18613L6.92347 5.40895H7.30817L7.27278 5.18613H6.89398ZM7.39904 5.18613L7.4364 5.40895H7.82109L7.77784 5.18613H7.39904ZM7.9041 5.18613L7.94932 5.40895H8.33402L8.2829 5.18613H7.9041ZM7.35098 4.89945L7.38685 5.11337H7.76371L7.72219 4.89945H7.35098ZM1.53541 4.89945L1.48256 5.11337H2.23629L2.27782 4.89945H1.53541ZM2.40155 4.89945L2.36192 5.11337H2.73879L2.77276 4.89945H2.40155ZM2.8965 4.89945L2.86441 5.11337H3.24128L3.26771 4.89945H2.8965ZM3.39144 4.89945L3.3669 5.11337H3.74377L3.76265 4.89945H3.39144ZM3.88638 4.89945L3.8694 5.11337H4.24627L4.25759 4.89945H3.88638ZM3.30173 4.62403L3.27634 4.82957H3.64569L3.66564 4.62403H3.30173ZM2.81651 4.62403L2.78386 4.82957H3.15322L3.18042 4.62403H2.81651ZM2.33128 4.62403L2.29139 4.82957H2.66074L2.6952 4.62403H2.33128ZM2.26372 4.35922L2.22361 4.55686H2.58575L2.62062 4.35922H2.26372ZM1.60345 4.62403L1.55267 4.82957H2.16827L2.20998 4.62403H1.60345ZM1.66887 4.35922L1.62005 4.55686H2.1029L2.14475 4.35922H1.66887ZM2.73959 4.35922L2.70646 4.55686H3.0686L3.0965 4.35922H2.73959ZM6.80775 3.68096L6.96014 4.76038H8.06272L7.82461 3.68096H6.80775ZM1.86512 3.5649L1.68484 4.29461H3.10562L3.20864 3.5649H1.86512ZM1.71711 5.18613L1.66599 5.40895H2.05069L2.09591 5.18613H1.71711Z" fill="white"/>
<path d="M5.25382 5.25964L5.7615 5.25963L5.75376 5.11335H5.25127L5.25382 5.25964Z" fill="white"/>
<path d="M5.75376 5.11335L6.005 5.11334L5.99488 4.97001H5.74617L5.75376 5.11335Z" fill="white"/>
<path d="M5.99488 4.97001L6.24362 4.97004L6.21907 4.69187H5.97527L5.99488 4.97001Z" fill="white"/>
<path fill-rule="evenodd" clip-rule="evenodd" d="M3.63168 3.79915L3.61893 3.91956H3.38876L3.35817 4.16722H3.59272L3.57923 4.29461H4.05282L4.04366 4.42446H4.28275L4.27574 4.55686H4.51716L4.52642 4.29461H4.76322L4.76092 4.42446H5.00001V4.55686H5.24143L5.2391 4.42446H5.47818L5.49248 4.82957H5.00001V5.25964H5.25382L5.25127 5.11335H5.75376L5.74617 4.97001H5.99488L5.97527 4.69187H6.21907L6.24362 4.97004L5.99488 4.97001L6.005 5.11334L5.75376 5.11335L5.7615 5.25963L5.25382 5.25964L5.25647 5.40895H6.02585L6.01531 5.25964H6.26914L6.25624 5.11337H6.50748L6.49231 4.97004H6.74102L6.65759 4.29461H6.42079L6.4073 4.16722H6.17275L6.16172 4.04222H5.92938L5.92072 3.91956H5.46036L5.45611 3.79915H4.08779L4.09613 3.68096H3.87016L3.85973 3.79915H3.63168ZM4.29638 4.16721H4.06183L4.07066 4.04222H4.303L4.29638 4.16721Z" fill="#D36A60"/>
<path d="M4.10432 3.5649L4.09613 3.68096H5.67791L5.67177 3.5649H4.10432Z" fill="#D36A60"/>
<path d="M5.90388 3.68096H5.67791L5.68417 3.79915H5.91222L5.90388 3.68096Z" fill="#D36A60"/>
<path d="M6.80775 3.68096L6.96014 4.76038H8.06272L7.82461 3.68096H6.80775Z" fill="#AE89B8"/>
<path d="M6.89398 5.18613L6.92347 5.40895H7.30817L7.27278 5.18613H6.89398Z" fill="#AE89B8"/>
<path d="M7.39904 5.18613L7.4364 5.40895H7.82109L7.77784 5.18613H7.39904Z" fill="#AE89B8"/>
<path d="M7.9041 5.18613L7.94932 5.40895H8.33402L8.2829 5.18613H7.9041Z" fill="#AE89B8"/>
<path d="M7.35098 4.89945L7.38685 5.11337H7.76371L7.72219 4.89945H7.35098Z" fill="#AE89B8"/>
<path d="M2.22217 5.18613L2.17892 5.40895H4.74354L4.74748 5.18613H2.22217Z" fill="#AE89B8"/>
<path d="M3.88638 4.89945L3.8694 5.11337H4.24627L4.25759 4.89945H3.88638Z" fill="#AE89B8"/>
<path d="M3.39144 4.89945L3.3669 5.11337H3.74377L3.76265 4.89945H3.39144Z" fill="#AE89B8"/>
<path d="M3.30173 4.62403L3.27634 4.82957H3.64569L3.66564 4.62403H3.30173Z" fill="#AE89B8"/>
<path d="M2.8965 4.89945L2.86441 5.11337H3.24128L3.26771 4.89945H2.8965Z" fill="#AE89B8"/>
<path d="M2.81651 4.62403L2.78386 4.82957H3.15322L3.18042 4.62403H2.81651Z" fill="#AE89B8"/>
<path d="M2.73959 4.35922L2.70646 4.55686H3.0686L3.0965 4.35922H2.73959Z" fill="#AE89B8"/>
<path d="M2.26372 4.35922L2.22361 4.55686H2.58575L2.62062 4.35922H2.26372Z" fill="#AE89B8"/>
<path d="M1.86512 3.5649L1.68484 4.29461H3.10562L3.20864 3.5649H1.86512Z" fill="#AE89B8"/>
<path d="M1.66887 4.35922L1.62005 4.55686H2.1029L2.14475 4.35922H1.66887Z" fill="#AE89B8"/>
<path d="M2.33128 4.62403L2.29139 4.82957H2.66074L2.6952 4.62403H2.33128Z" fill="#AE89B8"/>
<path d="M2.40155 4.89945L2.36192 5.11337H2.73879L2.77276 4.89945H2.40155Z" fill="#AE89B8"/>
<path d="M1.53541 4.89945L1.48256 5.11337H2.23629L2.27782 4.89945H1.53541Z" fill="#AE89B8"/>
<path d="M1.60345 4.62403L1.55267 4.82957H2.16827L2.20998 4.62403H1.60345Z" fill="#AE89B8"/>
<path d="M1.71711 5.18613L1.66599 5.40895H2.05069L2.09591 5.18613H1.71711Z" fill="#AE89B8"/>
<path fill-rule="evenodd" clip-rule="evenodd" d="M0.5 5.99077L0.7642 6.78337H9.23709L9.5 5.99077H0.5ZM0.829238 6.19803L0.983441 6.68941H9.12667L9.28424 6.19803L8.93397 6.49727H1.30461L0.829238 6.19803Z" fill="white"/>
</svg>
