<svg width="10" height="10" viewBox="0 0 10 10" fill="none" xmlns="http://www.w3.org/2000/svg" xmlns:xlink="http://www.w3.org/1999/xlink">
<rect width="10" height="10" fill="#350955"/>
<path d="M4.99996 0.5H9.5V5.00004H4.99996V0.5Z" fill="#1E0A2D"/>
<path d="M0.5 5.00005L4.99996 5.00004L5.00004 9.50009H0.5V5.00005Z" fill="#1E0A2D"/>
<path d="M7.33493 9.57753C6.54034 9.5609 5.91483 9.63437 4.94633 9.62399C3.97784 9.6136 3.83278 9.57463 2.72362 9.5834C1.89799 9.58993 1.07201 9.57682 0.5 9.57631L0.424228 9.57683L0.423695 9.5C0.423873 9.3036 0.422568 9.13713 0.418476 9.0109C0.402459 8.51707 0.450883 8.46495 0.440128 7.76366C0.429374 7.06241 0.435695 6.63738 0.451435 6.02408C0.467175 5.41073 0.480612 3.52646 0.461277 2.84128C0.441941 2.1561 0.475491 1.37461 0.483448 0.904634C0.485926 0.758242 0.489318 0.643035 0.492847 0.554712C0.494343 0.517301 0.497474 0.50001 0.500563 0.5C0.500565 0.5 0.500567 0.5 0.500569 0.5C0.504417 0.500014 0.508199 0.526811 0.508686 0.574901C0.511045 0.808322 0.517271 1.15719 0.531223 1.56932C0.557238 2.33777 0.52849 2.42174 0.541858 3.45941C0.555226 4.49707 0.581952 5.12051 0.56467 6.34145C0.547613 7.54655 0.617849 7.83538 0.58026 9.5L0.5 9.41974C0.521853 9.42023 0.543941 9.42075 0.566274 9.42128C2.28969 9.46226 2.47108 9.38663 4.18853 9.37657C5.906 9.36651 8.07395 9.40824 9.10926 9.40478C9.23447 9.40436 9.36489 9.40387 9.5 9.40333L9.40333 9.5C9.39947 8.51795 9.39372 7.28742 9.40249 5.99725C9.41247 4.52957 9.38728 2.71776 9.40509 1.09767C9.40719 0.906724 9.40935 0.706461 9.41156 0.5L9.5 0.58844C7.9548 0.571905 6.06245 0.552835 5.12902 0.539539C4.07091 0.524467 3.813 0.521067 2.79452 0.530277C2.20908 0.535571 1.40259 0.530581 0.721361 0.511112C0.378525 0.501313 0.456212 0.487671 0.801288 0.481143C1.3059 0.471599 1.72014 0.477975 1.98014 0.460926C2.49969 0.426851 2.7205 0.41378 3.37639 0.433612C4.03225 0.453442 4.34129 0.408375 4.72362 0.413562C5.10596 0.418752 5.09967 0.445334 7.0437 0.424854C8.08726 0.413859 8.87773 0.407261 9.5 0.402746L9.59657 0.402076L9.59725 0.5C9.60115 1.03696 9.60349 1.44868 9.60577 1.78969C9.61069 2.52589 9.58762 4.06313 9.59594 5.26294C9.60333 6.32718 9.59816 8.3665 9.60641 9.5L9.60714 9.60567L9.5 9.60641C9.35558 9.60746 9.22587 9.60873 9.11475 9.61027C8.13151 9.6239 8.12949 9.59415 7.33493 9.57753Z" fill="#FFBFC8"/>
<mask id="mask0_11_86" style="mask-type:alpha" maskUnits="userSpaceOnUse" x="0" y="0" width="10" height="10">
<rect width="10" height="10" fill="url(#paint0_radial_11_86)"/>
</mask>
<g mask="url(#mask0_11_86)">
<rect width="10" height="10" fill="url(#pattern0_11_86)" fill-opacity="0.05" style="mix-blend-mode:color-dodge"/>
</g>
<path d="M4.50426 6.44486C4.40428 6.44486 4.31649 6.40707 4.2409 6.33147C4.1653 6.25344 4.1275 6.16565 4.1275 6.0681C4.1275 5.89984 4.28357 5.69256 4.59571 5.44627L5.46994 4.78785C5.78451 4.51717 5.9418 4.26965 5.9418 4.0453C5.9418 3.76243 5.8089 3.5015 5.5431 3.26252C5.28704 3.03086 5.01514 2.91502 4.72739 2.91502C4.57376 2.91502 4.37867 2.99428 4.14213 3.15278C3.90559 3.30885 3.75928 3.38689 3.70319 3.38689C3.60321 3.38689 3.51664 3.34665 3.44348 3.26618C3.37276 3.18571 3.3374 3.09548 3.3374 2.9955C3.3374 2.80285 3.52395 2.61142 3.89706 2.42121C4.23114 2.25051 4.50792 2.16516 4.72739 2.16516C5.21755 2.16516 5.66259 2.35659 6.06251 2.73945C6.46244 3.1223 6.6624 3.55759 6.6624 4.0453C6.6624 4.40134 6.54779 4.71713 6.31856 4.99269C6.182 5.15851 5.92839 5.37311 5.55773 5.63648C5.18462 5.90716 4.92492 6.12663 4.7786 6.29489C4.69325 6.39487 4.6018 6.44486 4.50426 6.44486ZM4.30308 7.83485C4.19578 7.83485 4.09824 7.79827 4.01045 7.72512C3.9251 7.6544 3.88242 7.56783 3.88242 7.46541C3.88242 7.31422 3.92266 7.17766 4.00313 7.05573C4.09336 6.91917 4.20919 6.85089 4.35063 6.85089C4.58473 6.85089 4.70179 6.99476 4.70179 7.28252C4.70179 7.41664 4.67008 7.53735 4.60668 7.64464C4.52865 7.77145 4.42745 7.83485 4.30308 7.83485Z" fill="#FFBFC8"/>
<defs>
<radialGradient id="paint0_radial_11_86" cx="0" cy="0" r="1" gradientUnits="userSpaceOnUse" gradientTransform="translate(5 5) rotate(90) scale(5)">
<stop offset="0.5" stop-color="white"/>
<stop offset="1" stop-opacity="0"/>
</radialGradient>
<pattern id="pattern0_11_86" patternUnits="userSpaceOnUse" patternTransform="matrix(0.5 0 0 1 4.875 4.875)" preserveAspectRatio="none" viewBox="0 0 2 4" width="1" height="1">
<use xlink:href="#pattern0_11_86_inner" transform="translate(-2 0)"/>
<g id="pattern0_11_86_inner">
<circle cx="0.5" cy="0.5" r="0.5" fill="#FFBFC8"/>
</g>
<use xlink:href="#pattern0_11_86_inner" transform="translate(-1 2)"/>
<use xlink:href="#pattern0_11_86_inner" transform="translate(1 2)"/>
</pattern></defs>
</svg>
